<?xml version="1.0" standalone="no"?>
<!DOCTYPE svg PUBLIC "-//W3C//DTD SVG 20010904//EN"
 "http://www.w3.org/TR/2001/REC-SVG-20010904/DTD/svg10.dtd">
<svg version="1.0" xmlns="http://www.w3.org/2000/svg"
 width="512.000000pt" height="512.000000pt" viewBox="0 0 512.000000 512.000000"
 preserveAspectRatio="xMidYMid meet">
<metadata>
Created by potrace 1.14, written by Peter Selinger 2001-2017
</metadata>
<g transform="translate(0.000000,512.000000) scale(0.100000,-0.100000)"
fill="#000000" stroke="none">
<path d="M1208 4975 c-3 -4 -19 -8 -34 -10 -16 -1 -28 -7 -27 -12 1 -5 -25 -7
-58 -6 -42 1 -58 -1 -53 -9 5 -7 0 -9 -14 -6 -12 4 -22 2 -22 -3 0 -6 -9 -5
-20 1 -11 6 -19 7 -18 3 2 -4 -1 -9 -6 -10 -5 -1 -13 -7 -17 -15 -7 -10 -9 -8
-10 7 0 11 -3 14 -6 7 -2 -6 -10 -9 -16 -5 -8 4 -7 1 1 -9 11 -14 9 -16 -18
-14 -19 1 -34 -4 -40 -13 -6 -12 -11 -13 -23 -2 -13 10 -15 9 -10 -11 4 -18 3
-20 -6 -8 -7 10 -11 11 -11 3 0 -7 -5 -13 -12 -13 -6 0 -20 -8 -31 -17 -11
-10 -18 -13 -14 -7 3 6 0 11 -8 11 -8 0 -13 -5 -12 -11 1 -6 -4 -10 -10 -8 -7
1 -13 -5 -13 -13 0 -8 -3 -14 -7 -13 -15 4 -53 -14 -48 -22 7 -11 -24 -22 -37
-13 -7 4 -8 1 -4 -6 5 -8 0 -14 -13 -18 -11 -3 -18 -10 -14 -16 4 -6 0 -8 -10
-4 -11 4 -14 2 -10 -9 3 -9 -1 -14 -12 -14 -9 0 -15 -6 -13 -12 3 -7 -4 -21
-15 -31 -19 -19 -19 -18 -13 5 l6 23 -11 -22 c-7 -13 -16 -23 -21 -23 -5 0 -6
-4 -3 -10 3 -5 -1 -10 -10 -10 -11 0 -15 -5 -12 -14 4 -10 0 -13 -14 -11 -15
3 -18 1 -12 -8 12 -15 -28 -57 -54 -57 -5 0 -1 -5 7 -10 13 -8 13 -10 -2 -10
-9 0 -20 -5 -24 -12 -5 -7 -2 -9 7 -4 8 4 6 1 -5 -8 -10 -8 -15 -20 -10 -27 4
-8 3 -10 -4 -5 -7 4 -13 2 -13 -3 -1 -6 -2 -16 -3 -22 0 -7 -10 -15 -21 -20
-13 -5 -15 -8 -5 -9 12 0 11 -3 -3 -14 -14 -11 -15 -15 -5 -19 8 -3 6 -6 -6
-6 -11 -1 -16 -6 -13 -15 3 -8 -1 -17 -10 -20 -9 -4 -13 -13 -9 -22 5 -12 2
-15 -10 -10 -10 4 -14 2 -11 -6 2 -7 11 -12 18 -10 8 1 6 -4 -5 -13 -10 -8
-23 -12 -29 -8 -6 3 -7 1 -3 -6 4 -6 12 -9 17 -6 5 4 9 1 9 -4 0 -6 -4 -11 -9
-11 -4 0 -7 -11 -5 -26 2 -22 0 -23 -14 -12 -13 11 -14 11 -8 -1 5 -8 3 -17
-5 -22 -11 -7 -10 -9 5 -9 20 0 20 0 0 -16 -10 -8 -12 -12 -4 -8 11 5 10 1 -3
-13 -14 -16 -15 -23 -6 -29 8 -5 10 -3 4 6 -6 9 -4 11 5 5 10 -6 7 -13 -11
-27 -13 -11 -18 -17 -11 -13 6 3 12 2 12 -2 0 -5 -6 -15 -12 -22 -11 -11 -10
-13 4 -8 13 5 15 1 9 -21 -5 -15 -6 -33 -4 -39 3 -7 0 -13 -7 -13 -6 0 -8 -4
-5 -10 3 -5 1 -10 -6 -10 -8 0 -7 -5 2 -17 12 -15 12 -16 -3 -10 -10 3 -20 1
-24 -5 -5 -7 -2 -8 6 -3 10 6 12 4 6 -10 -5 -14 -3 -15 6 -7 10 8 13 1 13 -33
0 -36 -2 -41 -14 -32 -12 10 -12 9 -1 -10 8 -12 17 -20 21 -17 4 2 10 0 13 -5
4 -5 2 -13 -4 -16 -8 -5 -7 -12 2 -23 11 -13 10 -15 -5 -9 -16 6 -16 4 -3 -21
7 -15 11 -33 8 -41 -2 -8 0 -11 5 -8 6 4 10 -4 10 -19 0 -15 4 -29 9 -33 5 -3
10 -14 12 -25 2 -13 -1 -16 -10 -10 -11 6 -11 5 0 -8 7 -9 12 -20 11 -24 -3
-21 2 -35 11 -29 5 3 10 1 10 -5 0 -6 5 -8 12 -4 7 4 8 3 4 -5 -4 -6 -12 -8
-18 -5 -5 4 -2 -5 7 -19 9 -15 14 -31 10 -37 -3 -5 1 -10 11 -10 14 0 15 -2 3
-17 -10 -11 -10 -14 -2 -9 8 4 13 2 13 -4 0 -6 5 -8 12 -4 9 5 9 2 -1 -9 -11
-13 -11 -17 -1 -17 8 0 10 -3 7 -6 -9 -10 12 -46 24 -39 5 4 9 1 9 -5 0 -7 -7
-10 -15 -6 -8 3 -15 1 -15 -4 0 -6 5 -10 11 -10 5 0 8 -4 5 -9 -3 -5 2 -8 12
-7 9 0 16 -5 14 -13 -1 -7 2 -19 8 -25 5 -7 7 -16 3 -20 -10 -10 -13 -37 -3
-31 4 3 19 -4 31 -16 13 -11 18 -18 12 -14 -7 3 -13 1 -13 -4 0 -6 7 -11 15
-11 20 0 19 -17 -2 -30 -15 -9 -15 -10 5 -5 21 6 23 5 13 -13 -14 -26 -14 -43
0 -19 5 9 15 17 21 17 7 0 7 -4 -1 -14 -9 -11 -8 -15 4 -20 12 -4 14 -12 9
-28 -6 -20 -5 -21 10 -9 14 12 16 12 10 -3 -4 -10 -1 -16 7 -16 11 0 11 -2 -1
-10 -13 -8 -13 -11 -1 -22 10 -9 12 -10 7 -1 -5 9 -2 11 9 7 12 -5 13 -9 4
-20 -11 -14 -1 -20 26 -14 6 1 7 -2 2 -6 -4 -4 0 -18 8 -31 9 -13 13 -33 10
-43 -4 -12 -2 -20 5 -20 6 0 8 5 5 10 -3 6 -3 10 2 10 16 0 31 -48 19 -61 -8
-9 -8 -10 0 -6 7 4 18 0 25 -9 10 -13 10 -19 -1 -37 l-13 -22 23 20 c13 11 20
15 17 8 -4 -6 0 -19 9 -27 8 -9 11 -16 5 -16 -6 0 -11 -5 -11 -11 0 -6 9 -8
23 -4 18 6 20 5 9 -6 -15 -16 -16 -33 0 -23 7 5 9 2 5 -9 -4 -12 -2 -14 11
-10 14 6 15 4 4 -9 -10 -13 -10 -17 5 -23 10 -5 21 -8 25 -7 4 1 5 -5 2 -13
-4 -8 -10 -15 -15 -15 -5 0 -9 -5 -9 -12 0 -6 9 -3 20 7 19 17 26 12 21 -17 0
-5 3 -8 9 -8 5 0 10 -7 10 -15 0 -8 5 -15 11 -15 6 0 7 -5 2 -12 -4 -7 -9 -22
-10 -33 -2 -16 -1 -17 6 -5 5 8 8 17 6 20 -2 4 3 7 11 7 10 0 13 -6 8 -16 -13
-35 -15 -46 -4 -28 6 9 16 15 21 11 6 -3 5 -12 -3 -22 -10 -12 -10 -14 0 -8 7
4 12 2 12 -4 0 -6 4 -9 9 -6 5 3 7 -8 6 -24 -1 -16 1 -27 6 -24 5 3 7 9 4 14
-3 5 -2 11 3 14 4 2 9 -5 9 -16 1 -11 11 -27 23 -35 11 -8 18 -18 15 -23 -3
-5 0 -12 6 -15 5 -4 8 -13 5 -21 -3 -8 1 -14 8 -14 7 0 19 -6 25 -14 10 -11 8
-17 -6 -26 -16 -10 -15 -10 4 -5 19 5 22 3 16 -12 -3 -10 -3 -15 2 -11 4 4 14
3 21 -3 11 -9 11 -16 2 -33 -10 -18 -9 -19 4 -8 13 10 17 8 28 -18 10 -24 10
-33 -1 -48 -12 -15 -12 -15 7 1 21 17 22 17 22 -5 2 -42 9 -62 23 -66 11 -3
11 -1 -1 7 -8 6 -12 11 -8 11 4 0 3 11 -2 25 -6 15 -6 25 0 25 5 0 10 -10 12
-22 2 -13 9 -22 16 -20 6 1 11 -4 10 -10 -2 -7 2 -12 9 -11 9 2 10 -4 4 -20
-5 -12 -15 -21 -23 -19 -11 3 -11 1 1 -10 11 -10 14 -10 18 0 9 24 23 12 19
-17 -2 -23 0 -28 12 -23 10 3 13 1 8 -6 -5 -8 -2 -10 8 -6 25 10 38 -4 25 -28
-9 -18 -9 -20 4 -15 9 3 18 -1 21 -9 3 -9 11 -12 17 -8 8 4 9 3 5 -5 -6 -9
-11 -9 -22 0 -10 8 -14 8 -14 0 0 -6 5 -11 12 -11 6 0 4 -7 -5 -18 -14 -15
-15 -19 -2 -19 8 0 12 4 9 8 -2 4 5 13 17 19 12 7 19 8 15 2 -3 -6 -3 -12 1
-15 5 -2 2 -2 -4 -1 -23 6 -14 -6 12 -16 14 -5 25 -17 25 -25 0 -9 -5 -13 -10
-10 -6 4 -7 11 -4 17 4 7 2 8 -5 4 -8 -6 -9 -12 -2 -20 6 -7 7 -16 3 -20 -4
-4 0 -6 8 -4 8 2 14 -3 12 -10 -1 -8 2 -11 7 -8 5 4 11 2 13 -4 1 -5 18 -14
37 -20 18 -5 31 -7 28 -4 -3 4 0 13 8 20 18 19 31 18 15 -1 -7 -9 -8 -15 -2
-15 5 0 13 7 16 16 3 8 11 12 17 8 8 -4 9 -3 5 5 -4 6 -12 9 -17 6 -5 -4 -9 1
-9 10 0 13 4 14 21 4 15 -8 19 -8 15 0 -4 6 -2 11 4 11 7 0 9 7 6 16 -6 14 18
74 30 74 3 0 3 -4 0 -9 -3 -5 0 -11 7 -14 7 -3 12 4 12 19 0 13 -4 24 -9 24
-5 0 1 9 14 20 29 25 38 26 16 1 -15 -16 -15 -19 -2 -24 9 -4 18 -1 22 5 4 7
3 8 -4 4 -7 -4 -12 -3 -12 3 0 5 5 13 11 16 6 4 8 14 5 22 -4 11 -2 13 9 9 8
-3 15 -1 15 3 0 5 -6 12 -12 14 -10 4 -10 6 0 6 8 1 10 6 6 14 -6 9 -5 9 7 0
11 -9 18 -8 32 2 16 11 16 13 2 19 -9 3 -13 2 -10 -4 4 -6 -1 -7 -11 -3 -15 6
-15 7 1 15 9 5 24 7 33 4 13 -5 13 -3 -2 9 -11 8 -14 15 -8 15 7 0 11 6 10 13
-2 6 5 11 15 9 9 -2 17 2 17 8 0 5 -4 10 -10 10 -5 0 -2 9 7 19 9 11 21 17 27
14 6 -4 5 0 -2 9 -10 13 -10 18 -1 24 8 4 9 3 5 -4 -4 -7 -2 -12 3 -12 6 0 11
9 11 19 0 11 5 23 12 27 7 5 8 3 3 -6 -5 -8 -4 -11 3 -6 6 4 9 13 5 21 -3 8 0
15 6 15 6 0 11 -5 11 -12 0 -19 11 -2 16 26 3 17 0 26 -8 26 -7 0 -5 5 5 11
10 6 24 8 32 6 13 -6 15 16 3 29 -10 9 15 44 31 44 9 0 11 7 8 21 -5 19 -4 19
18 5 17 -11 26 -13 31 -4 4 6 3 8 -3 5 -13 -8 -36 17 -25 27 4 4 7 11 7 14 0
4 7 17 15 28 11 15 23 20 45 18 20 -2 25 0 16 6 -19 11 -23 40 -5 33 13 -5 19
-24 15 -46 -1 -4 4 -17 10 -29 8 -15 8 -18 0 -14 -13 9 -14 -13 -2 -33 13 -20
2 -41 -17 -33 -14 5 -15 4 -2 -10 8 -9 18 -14 22 -11 4 2 5 -3 2 -11 -3 -8
-13 -12 -22 -9 -10 3 -13 2 -6 -4 14 -11 15 -85 0 -76 -6 4 -5 -1 3 -10 15
-19 26 -23 15 -5 -4 7 -3 8 4 4 6 -4 9 -13 6 -21 -4 -8 -10 -12 -15 -9 -5 3
-6 -2 -3 -10 3 -9 11 -16 17 -16 6 0 7 -3 4 -6 -4 -4 -15 -1 -24 7 -15 11 -16
11 -5 -1 16 -18 16 -33 0 -24 -10 6 -10 4 0 -7 16 -17 16 -32 0 -23 -9 5 -9 2
1 -9 15 -19 26 -23 15 -5 -4 7 -3 8 4 4 17 -10 3 -36 -16 -29 -11 4 -7 -3 8
-17 16 -15 19 -21 8 -17 -10 3 -20 1 -24 -5 -4 -6 -3 -8 3 -5 6 4 11 -4 11
-18 0 -16 -5 -22 -12 -18 -6 4 -5 -1 3 -10 15 -19 26 -23 15 -5 -4 7 -3 8 4 4
15 -9 3 -38 -12 -29 -8 4 -8 2 1 -7 6 -7 9 -19 6 -26 -3 -8 0 -14 7 -14 6 0 8
-5 5 -10 -4 -6 -10 -8 -15 -5 -5 3 -12 0 -16 -6 -4 -7 -3 -9 3 -6 6 4 16 0 23
-8 11 -13 10 -14 -3 -9 -16 6 -18 -19 -2 -33 4 -4 5 -2 0 6 -5 9 -4 12 3 7 17
-10 3 -36 -16 -29 -11 4 -9 -1 6 -14 19 -18 20 -22 6 -27 -13 -5 -14 -9 -4
-20 9 -11 8 -22 -5 -46 -9 -18 -12 -30 -7 -26 5 3 15 -1 22 -9 11 -13 10 -14
-4 -9 -12 5 -15 2 -10 -10 4 -10 1 -16 -7 -16 -7 0 -9 -3 -6 -6 4 -4 13 -1 21
5 12 10 14 9 9 -8 -3 -12 -10 -18 -17 -14 -6 3 -2 -4 9 -17 l20 -23 -25 13
c-23 12 -24 12 -11 -4 13 -15 13 -19 0 -27 -8 -5 -9 -9 -3 -9 5 0 15 5 21 11
9 9 10 7 6 -9 -3 -12 -9 -20 -13 -17 -5 3 -12 0 -16 -6 -4 -8 -3 -9 4 -5 7 4
12 2 12 -4 0 -6 6 -8 13 -5 6 4 3 -1 -7 -9 -17 -14 -17 -16 -4 -16 22 0 32
-16 17 -26 -8 -5 -9 -3 -4 6 5 8 4 11 -3 6 -6 -4 -9 -13 -6 -21 4 -8 11 -12
17 -8 6 3 7 1 3 -5 -4 -7 -2 -12 5 -12 7 0 4 -7 -7 -15 -16 -13 -16 -14 -1 -9
17 6 21 -3 17 -40 -1 -12 2 -16 11 -11 7 5 10 4 6 -2 -4 -6 -1 -16 6 -21 7 -6
19 -27 27 -47 7 -19 18 -35 22 -35 5 0 6 -5 3 -10 -4 -6 -12 -7 -18 -3 -7 4
-6 0 2 -10 7 -9 23 -17 36 -17 13 0 22 -6 22 -15 0 -11 -4 -12 -11 -5 -5 5
-15 10 -20 10 -6 0 -3 -5 7 -11 9 -6 15 -15 12 -20 -4 -5 -12 -6 -18 -3 -7 4
-9 3 -4 -1 4 -5 18 -10 30 -12 15 -2 18 0 9 6 -11 7 -10 9 3 14 9 4 13 3 10
-2 -3 -5 4 -12 15 -16 11 -4 17 -11 14 -17 -4 -6 -10 -5 -15 3 -5 8 -9 9 -9 3
0 -21 25 -35 39 -21 10 9 11 7 6 -14 -4 -17 -2 -30 6 -34 8 -5 10 -4 5 3 -4 7
-2 20 4 29 11 17 11 17 6 0 -5 -15 -2 -17 17 -12 21 7 21 6 3 -7 -17 -14 -17
-15 -2 -21 10 -4 15 -3 11 3 -3 6 1 7 9 4 18 -7 22 -24 6 -24 -5 0 -10 -5 -10
-11 0 -8 4 -8 14 0 14 12 26 3 40 -29 4 -9 5 -7 2 6 -2 12 2 21 9 21 7 0 12
-8 10 -18 -4 -19 31 -56 42 -46 3 4 1 7 -6 7 -7 0 -9 5 -6 11 5 6 12 4 21 -8
15 -20 18 -37 6 -29 -5 3 -9 -1 -9 -9 0 -18 14 -20 20 -2 2 6 8 8 13 4 5 -5
-2 -17 -16 -29 -14 -11 -20 -17 -15 -15 6 3 12 -4 12 -16 2 -17 0 -19 -7 -7
-9 14 -14 7 -11 -13 1 -5 -3 -6 -9 -2 -5 3 -10 -1 -10 -10 0 -10 -5 -13 -12
-9 -8 5 -8 2 1 -10 12 -14 12 -17 1 -14 -8 2 -14 -3 -15 -10 0 -16 -26 -33
-39 -25 -5 3 -6 1 -2 -6 4 -6 13 -9 19 -5 7 3 5 0 -4 -8 -9 -7 -14 -17 -13
-23 2 -5 -6 -21 -17 -35 -11 -14 -18 -19 -14 -12 14 27 -4 10 -29 -28 -15 -23
-24 -46 -20 -52 5 -8 2 -9 -10 -5 -9 4 -15 3 -11 -2 3 -5 -1 -12 -7 -14 -10
-4 -10 -6 0 -6 6 -1 12 -6 12 -12 0 -5 -4 -7 -10 -4 -5 3 -10 2 -10 -4 0 -5
-9 -13 -20 -16 -11 -4 -18 -10 -15 -15 8 -13 -6 -41 -17 -34 -5 3 -8 -2 -6
-12 2 -14 -2 -18 -17 -17 -11 1 -14 0 -7 -3 16 -7 16 -24 -1 -24 -8 0 -14 -7
-15 -15 -1 -8 -3 -21 -4 -29 -1 -8 -8 -12 -16 -8 -10 3 -13 1 -8 -6 4 -7 2
-12 -6 -12 -10 0 -10 -2 1 -9 11 -7 11 -9 0 -14 -10 -4 -9 -6 4 -6 9 -1 17 -6
17 -12 0 -5 -6 -7 -12 -3 -7 4 -3 -4 8 -17 12 -13 19 -30 17 -36 -3 -9 5 -12
27 -9 28 3 31 1 28 -19 -3 -13 0 -22 8 -22 7 0 12 3 10 6 -2 3 2 12 10 19 9 8
14 9 14 2 0 -6 5 -8 11 -4 7 4 7 -1 -1 -16 -11 -21 -9 -21 26 6 22 15 33 22
26 14 -6 -8 -12 -19 -12 -25 1 -5 9 0 19 12 10 12 21 19 25 16 3 -3 -2 -12
-12 -19 -11 -9 -13 -13 -4 -14 7 0 11 -4 8 -9 -4 -5 2 -8 11 -6 10 1 24 -2 31
-8 9 -7 11 -6 6 7 -4 10 -13 15 -20 12 -22 -9 -24 9 -2 23 11 7 17 8 13 2 -9
-15 8 -14 25 1 12 11 12 10 1 -4 -17 -23 -3 -23 22 -1 13 11 17 12 12 4 -6
-11 -4 -13 9 -8 14 6 17 3 12 -8 -4 -13 -2 -14 14 -5 11 6 20 8 20 5 0 -3 6 0
14 7 8 7 11 17 8 22 -3 5 0 6 7 2 6 -4 9 -11 6 -16 -3 -5 -1 -11 5 -15 5 -3
10 -1 10 6 0 7 10 9 25 7 14 -3 27 -2 30 2 6 10 40 6 42 -5 2 -6 -3 -10 -10
-11 -30 -2 -34 -5 -34 -20 0 -15 2 -15 13 1 7 9 17 14 23 11 5 -4 13 -1 17 5
4 8 9 7 16 -2 6 -10 7 -6 3 11 -6 23 -5 24 8 7 14 -16 15 -16 21 -1 4 9 4 19
1 22 -3 3 -5 -1 -5 -8 0 -7 -3 -11 -6 -7 -9 9 32 58 41 49 5 -4 5 2 1 12 -5
16 -4 17 9 6 14 -11 14 -10 5 14 -6 16 -6 25 0 21 5 -3 14 4 20 15 9 16 15 18
30 10 13 -7 21 -7 26 2 4 6 3 8 -3 5 -6 -4 -19 1 -29 9 -18 15 -18 15 4 11 12
-3 20 -1 17 3 -3 5 3 13 12 19 10 6 13 11 7 11 -5 0 -16 -6 -23 -12 -8 -7 -6
-1 3 14 10 14 24 29 32 32 8 3 14 11 14 17 0 8 -6 7 -17 -2 -16 -13 -17 -12
-4 4 11 13 17 15 28 6 11 -10 12 -9 7 5 -4 11 -2 15 7 13 8 -2 11 -2 7 0 -13
7 -9 23 4 20 7 -1 12 10 11 31 0 25 3 30 12 22 10 -8 15 -8 21 1 4 7 3 9 -3 6
-6 -4 -14 0 -17 8 -4 10 3 19 19 25 14 5 25 12 25 15 0 4 -5 3 -10 0 -5 -3
-10 -2 -10 4 0 17 22 24 31 10 6 -9 8 -2 7 21 -3 32 -1 35 22 32 25 -2 25 -2
3 10 l-21 13 26 20 c17 12 22 13 14 3 -10 -13 -9 -18 5 -29 16 -12 17 -12 6 2
-7 9 -10 19 -6 23 4 3 8 16 10 28 2 12 12 28 23 35 11 8 17 19 14 25 -4 6 3 5
16 -2 18 -10 24 -9 35 6 7 10 10 25 7 33 -5 14 -4 14 10 1 14 -13 14 -17 2
-31 -12 -13 -12 -16 0 -16 8 0 14 5 13 11 -1 6 5 10 13 8 10 -3 9 3 -5 19 -11
12 -14 19 -7 15 7 -4 21 -2 30 6 15 12 16 11 3 -5 -13 -17 -7 -23 22 -18 7 1
11 -15 8 -32 -1 -5 3 -6 9 -2 6 4 4 18 -7 38 -12 24 -13 29 -2 21 8 -5 24 -9
37 -8 16 1 21 -3 18 -12 -3 -7 0 -16 6 -20 7 -4 8 -3 4 4 -4 7 -2 12 4 12 6 0
8 4 5 10 -4 6 1 7 11 3 13 -5 15 -3 9 7 -6 9 -4 11 4 6 9 -6 8 -13 -6 -29 -10
-11 -12 -17 -5 -13 6 4 12 2 12 -3 0 -6 5 -11 11 -11 8 0 8 4 0 14 -9 11 -8
15 4 20 9 3 13 11 9 17 -4 8 -3 9 5 5 6 -4 9 -17 6 -29 -2 -12 -2 -16 1 -9 9
18 22 15 29 -9 4 -11 9 -18 12 -16 2 3 -3 20 -13 39 -12 24 -13 30 -3 23 8 -6
23 -10 34 -10 23 1 57 -33 48 -48 -3 -6 -1 -7 6 -3 9 6 9 13 -3 31 -15 22 -14
23 20 22 18 -1 34 -5 34 -10 0 -5 6 -4 14 2 11 9 20 9 35 2 26 -14 34 -14 25
1 -4 6 -3 8 4 4 5 -3 13 0 15 6 4 9 6 7 6 -3 1 -9 -9 -23 -21 -31 -17 -11 -19
-16 -8 -23 8 -5 11 -4 7 2 -7 11 20 28 36 24 5 -1 6 3 2 9 -10 16 6 12 29 -7
12 -10 15 -11 9 -3 -17 18 -16 27 2 27 8 0 12 -4 9 -9 -3 -4 2 -8 10 -8 10 0
13 -6 10 -17 -4 -11 -2 -14 3 -8 4 6 21 11 37 10 16 0 31 5 33 12 3 8 -7 11
-29 9 -41 -4 -49 0 -41 20 5 13 7 13 14 2 4 -7 23 -13 41 -14 61 -2 62 -3 48
-19 -9 -10 -9 -15 -1 -15 6 0 11 4 11 10 0 5 14 7 30 5 28 -3 30 -1 25 18 -4
15 -3 18 3 9 5 -7 17 -10 28 -7 17 6 18 6 2 -5 -10 -6 -18 -16 -18 -23 0 -8 3
-8 9 1 9 15 42 13 53 -3 4 -6 8 -2 8 9 0 11 -5 16 -13 13 -8 -3 -14 1 -14 8 0
10 5 11 18 4 10 -5 25 -6 33 -3 9 3 16 1 16 -5 0 -6 -5 -10 -11 -8 -6 1 -14
-5 -16 -13 -4 -13 -3 -13 6 0 8 11 11 11 11 2 0 -7 12 0 26 15 14 15 23 23 21
18 -3 -6 2 -19 10 -30 15 -20 15 -20 10 2 -4 17 -1 21 15 18 26 -5 48 -24 48
-41 0 -8 7 -14 15 -14 18 0 19 -9 4 -30 -9 -12 -10 -11 -4 5 5 15 3 17 -6 8
-16 -16 -2 -38 16 -23 9 7 16 6 25 -5 7 -8 9 -15 5 -15 -4 0 -2 -7 5 -15 6 -8
8 -20 4 -26 -5 -9 -2 -10 10 -6 10 4 15 3 11 -3 -3 -6 -1 -10 5 -10 6 0 8 -4
5 -10 -3 -5 2 -10 12 -11 13 -1 11 -3 -7 -9 -24 -8 -24 -8 -2 -9 21 -1 31 -24
15 -34 -5 -2 -2 -2 4 -1 7 2 24 -8 37 -21 14 -14 21 -25 16 -25 -5 0 -7 -6 -4
-14 3 -9 12 -12 22 -8 15 5 15 4 3 -11 -9 -11 -10 -17 -2 -17 6 0 11 -5 11
-11 0 -5 -4 -8 -8 -5 -4 2 -14 0 -22 -5 -12 -7 -11 -8 5 -6 11 1 26 6 33 11
12 7 12 4 1 -15 -12 -23 -11 -23 6 -9 16 13 18 13 13 0 -3 -8 3 -20 14 -26 19
-10 19 -12 3 -27 -9 -10 -13 -17 -8 -17 5 0 14 5 20 11 9 9 10 7 6 -10 -3 -13
-1 -21 6 -21 7 0 9 5 5 12 -4 7 -3 8 4 4 6 -4 9 -13 6 -21 -3 -8 4 -28 16 -45
13 -19 17 -30 9 -30 -7 0 -10 -3 -6 -6 3 -3 14 -1 24 5 10 6 13 11 6 11 -19 0
-36 37 -21 46 7 4 8 3 4 -4 -4 -6 2 -19 13 -29 15 -13 18 -20 9 -30 -8 -11 -7
-12 7 -7 15 6 16 4 6 -14 -16 -29 -14 -40 3 -16 8 10 18 15 22 11 5 -4 4 -11
-1 -15 -6 -4 -11 -12 -12 -19 -2 -11 8 -11 37 0 42 16 72 -10 48 -42 -9 -11
-6 -11 9 2 14 12 19 25 15 35 -5 15 -4 15 12 0 18 -19 41 -25 32 -9 -4 5 2 8
11 6 10 -2 22 -4 26 -4 5 -1 5 -6 1 -12 -4 -7 -1 -10 7 -7 8 3 14 10 14 16 0
5 4 14 9 19 5 4 6 3 3 -3 -4 -8 1 -12 16 -11 12 0 31 -4 41 -8 14 -6 17 -5 12
3 -5 8 -2 10 9 6 11 -5 13 -10 5 -19 -8 -10 -8 -15 1 -21 8 -4 9 -3 5 4 -4 7
-3 12 3 12 5 0 12 -6 15 -12 3 -7 3 -1 1 14 -2 20 0 25 11 21 8 -3 11 -10 8
-15 -4 -6 -1 -8 7 -6 8 3 13 10 12 16 -2 7 4 9 14 5 12 -5 14 -3 8 8 -8 12 -6
12 8 0 9 -7 14 -18 10 -25 -4 -6 1 -5 10 3 9 7 28 11 42 9 13 -3 27 0 30 6 3
6 3 1 1 -12 -2 -12 0 -20 5 -16 5 3 9 15 9 27 0 17 2 19 9 7 6 -8 7 -19 3 -25
-3 -5 1 -4 10 3 16 13 21 52 7 52 -4 0 -5 9 -2 20 4 16 0 20 -18 20 -13 0 -19
4 -14 8 13 9 18 35 5 27 -18 -11 -32 5 -18 23 10 12 10 14 1 8 -8 -4 -13 -2
-13 4 0 6 -4 9 -9 6 -11 -7 -23 22 -14 36 3 6 1 8 -4 5 -14 -9 -37 19 -28 33
3 5 1 10 -4 10 -6 0 -11 5 -11 11 0 6 -14 24 -32 41 -26 24 -29 31 -17 39 11
7 11 9 1 9 -19 0 -42 25 -42 45 0 10 -5 13 -12 9 -6 -4 -8 -3 -4 4 3 6 -2 16
-11 22 -16 11 -16 11 2 6 19 -6 19 -5 3 7 -10 8 -14 17 -10 21 4 4 0 6 -8 4
-10 -2 -15 4 -14 18 0 16 -4 20 -14 16 -10 -3 -13 -1 -8 6 3 6 1 14 -5 17 -5
4 -8 14 -4 22 4 13 3 14 -9 4 -11 -9 -16 -9 -22 0 -5 8 -3 9 6 4 10 -6 12 -4
7 9 -4 10 -7 21 -7 24 0 4 -5 0 -11 -8 -9 -12 -10 -12 -5 3 3 11 3 24 -1 30
-18 28 -13 45 12 43 13 -2 23 2 22 8 -1 6 5 10 13 8 8 -2 11 0 7 4 -11 11 -38
14 -31 3 3 -5 2 -9 -3 -10 -4 0 -18 -2 -31 -5 -19 -3 -21 -2 -10 10 7 8 16 12
20 10 4 -2 9 0 12 4 5 8 24 9 59 3 5 0 5 -6 1 -13 -5 -7 -3 -8 6 -3 10 6 10
11 -3 20 -18 13 -24 30 -7 20 6 -3 10 -1 10 6 0 7 11 10 30 7 17 -3 33 -1 36
4 3 5 10 6 15 3 5 -4 9 -2 9 3 0 6 -7 13 -16 16 -8 3 -12 11 -9 16 5 8 12 7
23 -2 13 -11 15 -10 10 10 -5 18 -4 21 6 12 10 -7 17 -6 26 5 11 13 10 15 -6
9 -15 -4 -16 -4 -5 4 17 12 43 4 34 -11 -3 -6 -1 -7 6 -3 6 4 9 11 6 16 -3 4
-2 10 2 13 5 2 2 2 -4 1 -20 -5 -15 14 5 21 9 3 30 16 46 29 20 17 25 26 16
31 -9 6 -11 4 -5 -5 5 -9 4 -11 -4 -6 -6 4 -14 0 -17 -9 -4 -8 -16 -21 -27
-27 -14 -7 -10 1 13 26 19 21 34 41 33 46 -2 5 4 7 12 4 8 -4 12 -10 9 -15 -3
-5 3 -6 12 -2 11 4 13 8 6 11 -12 4 -17 42 -6 42 3 0 15 -5 27 -11 19 -9 19
-8 -3 11 -21 18 -22 21 -5 15 15 -5 17 -3 9 5 -9 9 -7 22 7 51 11 21 22 39 25
39 3 0 2 -6 -2 -12 -5 -10 -3 -10 7 0 12 11 12 14 0 21 -10 7 -8 10 9 16 20 6
21 9 7 16 -9 5 -14 16 -11 24 4 8 11 12 18 8 6 -3 6 -1 -2 8 -6 7 -12 18 -12
24 0 5 5 3 10 -5 8 -13 10 -13 10 2 0 9 -8 19 -17 21 -15 4 -15 5 -2 6 11 1
17 10 17 26 0 16 -5 22 -12 18 -6 -4 -5 1 3 10 14 18 26 23 16 8 -3 -5 -1 -12
4 -15 5 -4 8 2 6 11 -2 10 -4 25 -4 33 -1 13 -2 13 -11 0 -6 -9 -10 -10 -10
-3 0 6 4 15 10 18 6 3 10 11 10 16 0 6 -4 8 -8 5 -5 -3 -9 1 -9 9 0 8 4 12 8
10 8 -6 22 25 14 33 -3 3 -5 0 -5 -6 0 -7 -5 -12 -10 -12 -7 0 -7 6 -1 18 6
11 6 24 -1 36 -8 14 -7 17 1 12 10 -7 8 33 -5 73 -3 10 -1 11 9 3 10 -8 13 -6
13 8 0 10 -3 17 -7 14 -4 -2 -10 3 -13 12 -3 8 -2 12 4 9 9 -6 5 37 -6 74 -3
10 -1 11 9 3 10 -8 13 -6 13 8 0 10 -4 16 -9 13 -5 -3 -6 4 -2 16 5 17 3 20
-12 15 -11 -4 -14 -3 -7 3 17 13 22 36 12 57 -7 13 -7 16 1 12 10 -7 7 33 -5
73 -3 10 -1 11 9 3 10 -8 13 -6 13 8 0 10 -3 17 -7 14 -4 -2 -10 3 -13 12 -3
8 -2 12 4 9 9 -6 5 37 -6 74 -3 10 -1 11 9 3 10 -8 13 -6 13 8 0 10 -4 16 -9
13 -5 -3 -6 4 -2 16 5 17 3 20 -12 15 -11 -4 -14 -3 -7 3 17 13 22 36 12 57
-7 13 -7 16 1 12 10 -7 7 33 -5 73 -3 10 -1 11 9 3 10 -8 13 -6 13 8 0 10 -3
17 -7 14 -4 -2 -10 3 -13 12 -3 8 -2 12 4 9 9 -6 5 37 -6 74 -3 10 -1 11 9 3
10 -8 13 -6 13 8 0 10 -4 16 -9 13 -5 -3 -6 4 -2 16 5 17 3 20 -12 15 -11 -4
-14 -3 -7 3 17 13 22 36 12 57 -7 13 -7 16 1 12 10 -7 7 33 -5 73 -3 10 -1 11
9 3 10 -8 13 -6 13 8 0 10 -3 17 -7 14 -4 -2 -10 3 -13 12 -3 8 -2 12 4 9 9
-6 5 37 -6 74 -3 10 -1 11 9 3 10 -8 13 -6 13 8 0 10 -4 16 -9 13 -5 -3 -6 4
-2 16 5 17 3 20 -12 15 -11 -4 -14 -3 -7 3 17 13 22 36 12 57 -7 13 -7 16 1
12 10 -7 7 33 -5 73 -3 10 -1 11 9 3 10 -8 13 -6 13 8 0 10 -3 17 -7 14 -4 -2
-10 3 -13 12 -3 8 -2 12 4 9 9 -6 5 37 -6 74 -3 10 -1 11 8 3 10 -8 13 -4 14
14 1 13 -2 24 -8 24 -5 0 -6 -4 -3 -10 10 -16 -1 -11 -16 7 -10 11 -10 14 -1
9 9 -5 12 4 12 34 0 30 -3 39 -12 34 -7 -4 -10 -4 -6 1 4 4 2 15 -5 23 -8 11
-8 14 0 9 6 -4 14 -3 18 3 3 5 0 10 -7 10 -9 0 -9 3 2 10 13 8 13 10 0 10 -10
0 -11 3 -3 11 9 9 8 18 -4 35 -8 13 -11 24 -7 24 5 0 2 5 -6 10 -13 9 -13 10
0 10 13 0 13 1 0 10 -8 5 -15 15 -16 22 -3 35 -5 39 -16 32 -7 -4 -5 2 5 14
18 20 18 20 -2 15 -13 -3 -21 -1 -21 6 0 7 4 10 8 7 5 -3 9 1 9 9 0 8 -3 12
-7 10 -4 -2 -13 7 -20 20 -7 13 -18 21 -24 18 -6 -4 -5 1 3 10 9 12 10 17 2
17 -7 0 -9 5 -6 10 3 6 1 10 -5 10 -6 0 -8 5 -4 13 5 7 0 6 -11 -3 -17 -14
-18 -13 -12 2 3 10 2 18 -4 18 -6 0 -7 5 -4 10 3 6 -1 10 -9 10 -9 0 -16 8
-16 19 0 11 -12 23 -30 31 -24 10 -28 15 -19 26 14 17 -2 18 -20 2 -11 -11
-13 -9 -8 10 4 18 2 22 -9 18 -8 -3 -14 -1 -14 5 0 6 -6 17 -14 25 -11 11 -16
11 -20 1 -4 -6 -4 -1 -2 12 4 18 2 21 -7 12 -14 -14 -30 -15 -22 -1 3 6 -1 10
-10 10 -11 0 -15 5 -12 14 4 10 -1 13 -18 11 -14 -1 -22 2 -19 6 3 5 0 9 -6 9
-6 0 -8 5 -4 13 5 7 2 7 -10 -2 -15 -12 -17 -12 -14 0 2 8 -4 13 -14 13 -10
-1 -16 1 -14 5 3 4 1 13 -5 21 -7 13 -9 13 -9 0 -1 -12 -3 -11 -11 3 -6 9 -14
15 -20 12 -5 -4 -9 -1 -9 6 0 6 -8 9 -19 6 -12 -3 -22 1 -25 9 -3 8 -13 14
-21 14 -10 0 -13 5 -9 13 5 8 2 8 -9 -2 -12 -9 -17 -10 -17 -2 0 7 -5 9 -10 6
-6 -3 -13 1 -16 10 -6 13 -8 14 -15 3 -7 -10 -9 -10 -9 0 0 6 -5 12 -11 12 -5
0 -7 -5 -3 -11 3 -6 -5 -4 -18 5 -14 9 -28 13 -31 9 -4 -3 -7 -1 -7 6 0 7 -5
9 -10 6 -6 -4 -7 -12 -3 -18 3 -7 -4 -3 -16 7 -22 20 -22 20 -16 0 7 -19 6
-19 -9 0 -14 17 -16 17 -22 3 -3 -9 -10 -14 -15 -11 -5 3 -7 9 -5 13 3 4 -1 8
-9 8 -8 0 -12 -4 -9 -9 6 -9 -25 -6 -43 5 -6 4 -23 3 -38 -3 -29 -11 -84 -10
-91 1 -2 4 -20 2 -40 -4 -24 -7 -44 -8 -62 -1 -30 11 -55 8 -47 -7 4 -5 -1 -6
-9 -3 -9 3 -14 9 -11 13 2 4 -2 8 -10 8 -8 0 -12 -4 -9 -9 3 -4 -4 -8 -16 -8
-12 0 -19 4 -16 8 3 5 -1 9 -8 9 -8 0 -12 -7 -9 -16 3 -12 0 -11 -11 3 -14 17
-16 17 -22 3 -3 -9 -10 -14 -15 -11 -5 3 -7 9 -5 13 3 4 -1 8 -9 8 -8 0 -12
-4 -9 -9 3 -4 -5 -6 -18 -4 -13 3 -23 5 -23 7 0 1 -10 3 -22 4 -12 1 -20 -2
-17 -6 7 -12 -27 -11 -45 0 -17 11 -43 3 -35 -10 3 -5 -2 -6 -10 -3 -9 3 -14
9 -11 13 2 4 -2 8 -10 8 -8 0 -12 -4 -9 -9 3 -4 -4 -8 -16 -8 -12 0 -19 4 -16
8 3 5 -1 9 -8 9 -8 0 -12 -7 -9 -16 3 -12 0 -11 -11 3 -14 17 -16 17 -22 3 -3
-9 -10 -14 -15 -11 -5 3 -7 9 -5 13 3 4 -1 8 -9 8 -8 0 -12 -4 -9 -9 3 -4 -5
-6 -18 -4 -13 3 -23 5 -23 7 0 1 -10 3 -22 4 -12 1 -20 -2 -17 -6 7 -12 -27
-11 -45 0 -17 11 -43 3 -35 -10 3 -5 -2 -6 -10 -3 -9 3 -14 9 -11 13 2 4 -2 8
-10 8 -8 0 -12 -4 -9 -9 3 -4 -4 -8 -16 -8 -12 0 -19 4 -16 8 3 5 -1 9 -8 9
-8 0 -12 -7 -9 -16 3 -12 0 -11 -11 3 -14 17 -16 17 -22 3 -3 -9 -10 -14 -15
-11 -5 3 -7 9 -5 13 3 4 -1 8 -9 8 -8 0 -12 -4 -9 -9 3 -4 -5 -6 -18 -4 -13 3
-23 5 -23 7 0 1 -10 3 -22 4 -12 1 -20 -2 -17 -6 7 -12 -27 -11 -45 0 -17 11
-43 3 -35 -10 3 -5 -2 -6 -10 -3 -9 3 -14 9 -11 13 2 4 -2 8 -10 8 -8 0 -12
-4 -9 -9 3 -4 -4 -8 -16 -8 -12 0 -19 4 -16 8 3 5 -1 9 -8 9 -8 0 -12 -7 -9
-16 3 -12 0 -11 -11 3 -14 17 -16 17 -22 3 -3 -9 -10 -14 -15 -11 -5 3 -7 9
-5 13 3 4 -1 8 -9 8 -8 0 -12 -4 -9 -9 6 -10 -26 -6 -44 6 -7 4 -19 3 -26 -3
-9 -7 -16 -7 -26 2 -10 10 -11 9 -5 -2 6 -11 3 -13 -13 -9 -12 4 -22 2 -22 -3
0 -4 -7 -5 -17 -2 -10 4 -14 2 -10 -4 8 -13 -19 -11 -30 2 -4 4 -2 5 6 0 10
-6 12 -4 7 4 -6 8 -12 9 -20 2 -7 -6 -16 -8 -20 -4 -4 4 -4 -1 0 -12 8 -20 8
-20 -11 -1 -26 26 -31 57 -7 50 16 -5 16 -5 -1 6 -9 6 -15 15 -12 21 4 5 1 9
-6 9 -8 0 -7 5 2 17 12 15 12 16 -5 10 -14 -6 -17 -4 -12 8 3 8 0 15 -7 15 -8
0 -8 3 2 9 10 7 10 10 1 13 -7 2 -12 16 -12 31 0 15 -4 24 -9 21 -8 -5 -14 26
-10 49 1 5 -3 6 -9 2 -6 -3 -7 -11 -4 -17 4 -7 2 -8 -4 -4 -6 4 -9 13 -5 21 3
8 0 15 -6 15 -6 0 -10 3 -9 8 5 13 -32 92 -42 92 -7 0 -7 8 1 23 11 20 11 21
-4 8 -15 -12 -17 -11 -17 8 0 12 -6 21 -15 21 -9 0 -18 13 -22 31 -4 23 -8 27
-15 17 -7 -9 -8 -6 -5 10 5 20 3 22 -11 10 -12 -10 -14 -10 -8 0 4 7 2 12 -4
12 -7 0 -9 7 -6 17 4 10 4 14 0 10 -7 -7 -17 3 -63 62 -13 17 -30 31 -38 31
-8 0 -11 5 -8 10 3 6 -1 10 -9 10 -9 0 -16 7 -16 15 0 8 -7 15 -16 15 -8 0
-12 5 -9 10 4 6 -7 15 -24 21 -17 6 -29 15 -28 21 1 6 -7 12 -18 14 -11 1 -27
12 -37 24 -11 14 -18 16 -21 8 -4 -8 -6 -7 -6 4 -1 14 -26 30 -51 33 -3 0 -18
10 -35 21 -16 12 -36 19 -44 16 -8 -3 -11 0 -7 7 6 10 -13 16 -37 12 -5 -1 -5
4 -1 10 5 9 2 10 -9 6 -10 -3 -17 -2 -17 2 0 5 -9 7 -20 4 -15 -4 -20 0 -20
13 0 16 -2 17 -10 4 -5 -8 -10 -10 -10 -3 0 6 -9 9 -22 5 -14 -3 -19 -2 -14 6
7 12 -11 17 -43 13 -7 -2 -10 2 -7 7 7 12 -13 10 -33 -2 -11 -7 -13 -5 -8 6 5
14 1 15 -24 8 -18 -5 -31 -5 -35 2 -4 6 -9 5 -15 -3 -7 -11 -11 -10 -24 6 -12
16 -14 17 -9 2 5 -13 2 -16 -10 -11 -9 3 -13 11 -9 18 4 6 -2 4 -12 -4 -15
-12 -17 -12 -10 -1 6 11 4 13 -8 8 -9 -3 -19 -2 -22 3 -3 6 -15 6 -29 0 -14
-5 -27 -5 -33 1 -5 5 -12 7 -15 4z m1382 -965 c0 -5 -2 -10 -4 -10 -3 0 -8 5
-11 10 -3 6 -1 10 4 10 6 0 11 -4 11 -10z m320 0 c0 -5 -2 -10 -4 -10 -3 0 -8
5 -11 10 -3 6 -1 10 4 10 6 0 11 -4 11 -10z m320 0 c0 -5 -2 -10 -4 -10 -3 0
-8 5 -11 10 -3 6 -1 10 4 10 6 0 11 -4 11 -10z m320 0 c0 -5 -2 -10 -4 -10 -3
0 -8 5 -11 10 -3 6 -1 10 4 10 6 0 11 -4 11 -10z m480 0 c0 -5 -2 -10 -4 -10
-3 0 -8 5 -11 10 -3 6 -1 10 4 10 6 0 11 -4 11 -10z m-2126 -1506 c3 -8 2 -12
-4 -9 -6 3 -10 10 -10 16 0 14 7 11 14 -7z m3 -269 c0 -8 -4 -12 -9 -9 -5 3
-6 10 -3 15 9 13 12 11 12 -6z m-210 -9 c0 -8 -6 -12 -15 -9 -11 5 -11 7 0 14
7 5 13 9 14 9 0 0 1 -6 1 -14z m210 -111 c0 -8 -4 -12 -9 -9 -5 3 -6 10 -3 15
9 13 12 11 12 -6z m0 -120 c0 -8 -4 -12 -9 -9 -5 3 -6 10 -3 15 9 13 12 11 12
-6z m-772 -15 c3 -5 2 -10 -4 -10 -5 0 -13 5 -16 10 -3 6 -2 10 4 10 5 0 13
-4 16 -10z m133 -187 c-2 -11 2 -17 10 -15 8 1 11 -2 8 -7 -4 -5 2 -14 11 -20
10 -6 14 -11 9 -11 -18 0 -55 42 -49 56 7 20 14 17 11 -3z m142 13 c0 -3 -4
-8 -10 -11 -5 -3 -10 -1 -10 4 0 6 5 11 10 11 6 0 10 -2 10 -4z m500 -120 c0
-3 -4 -8 -10 -11 -5 -3 -10 -1 -10 4 0 6 5 11 10 11 6 0 10 -2 10 -4z m305
-646 c3 -5 1 -10 -4 -10 -6 0 -11 5 -11 10 0 6 2 10 4 10 3 0 8 -4 11 -10z
m55 -60 c0 -5 -2 -10 -4 -10 -3 0 -8 5 -11 10 -3 6 -1 10 4 10 6 0 11 -4 11
-10z m2380 -15 c0 -12 -19 -12 -23 0 -4 9 -1 12 9 8 7 -3 14 -7 14 -8z m-2322
-20 c-3 -3 -9 2 -12 12 -6 14 -5 15 5 6 7 -7 10 -15 7 -18z m625 -89 c9 -24
-18 -39 -34 -19 -10 11 -10 14 -1 9 7 -4 15 -1 18 8 8 20 10 20 17 2z m732 -4
c-3 -3 -11 0 -18 7 -9 10 -8 11 6 5 10 -3 15 -9 12 -12z m800 8 c3 -5 2 -10
-4 -10 -5 0 -13 5 -16 10 -3 6 -2 10 4 10 5 0 13 -4 16 -10z m-2325 -219 c-5
-11 -15 -23 -21 -27 -6 -3 -3 5 6 20 20 30 30 35 15 7z m564 -107 c3 -8 2 -12
-4 -9 -6 3 -10 10 -10 16 0 14 7 11 14 -7z m1618 -286 c-7 -7 -12 -8 -12 -2 0
14 12 26 19 19 2 -3 -1 -11 -7 -17z m-2012 -12 c0 -3 -4 -8 -10 -11 -5 -3 -10
-1 -10 4 0 6 5 11 10 11 6 0 10 -2 10 -4z"/>
<path d="M1887 4769 c7 -7 15 -10 18 -7 3 3 -2 9 -12 12 -14 6 -15 5 -6 -5z"/>
<path d="M156 3767 c3 -10 9 -15 12 -12 3 3 0 11 -7 18 -10 9 -11 8 -5 -6z"/>
<path d="M166 3638 c3 -5 10 -6 15 -3 13 9 11 12 -6 12 -8 0 -12 -4 -9 -9z"/>
<path d="M235 3460 c3 -5 8 -10 11 -10 2 0 4 5 4 10 0 6 -5 10 -11 10 -5 0 -7
-4 -4 -10z"/>
<path d="M4890 3466 c0 -2 7 -7 16 -10 8 -3 12 -2 9 4 -6 10 -25 14 -25 6z"/>
<path d="M274 3356 c1 -8 5 -18 8 -22 4 -3 5 1 4 10 -1 8 -5 18 -8 22 -4 3 -5
-1 -4 -10z"/>
<path d="M326 3242 c-3 -5 1 -9 9 -9 8 0 15 4 15 9 0 4 -4 8 -9 8 -6 0 -12 -4
-15 -8z"/>
<path d="M350 3166 c0 -2 7 -7 16 -10 8 -3 12 -2 9 4 -6 10 -25 14 -25 6z"/>
<path d="M4950 3090 c-9 -6 -10 -10 -3 -10 6 0 15 5 18 10 8 12 4 12 -15 0z"/>
<path d="M510 2921 c5 -11 15 -23 21 -27 6 -3 3 5 -6 20 -20 30 -30 35 -15 7z"/>
<path d="M550 2836 c0 -2 7 -7 16 -10 8 -3 12 -2 9 4 -6 10 -25 14 -25 6z"/>
<path d="M580 2779 c0 -5 5 -7 10 -4 6 3 10 8 10 11 0 2 -4 4 -10 4 -5 0 -10
-5 -10 -11z"/>
<path d="M4950 2770 c-9 -6 -10 -10 -3 -10 6 0 15 5 18 10 8 12 4 12 -15 0z"/>
<path d="M606 2723 c-6 -14 -5 -15 5 -6 7 7 10 15 7 18 -3 3 -9 -2 -12 -12z"/>
<path d="M715 2570 c-8 -13 3 -30 18 -30 8 0 7 3 -2 9 -7 5 -10 14 -7 20 4 6
5 11 2 11 -3 0 -8 -4 -11 -10z"/>
<path d="M730 2519 c0 -5 5 -7 10 -4 6 3 10 8 10 11 0 2 -4 4 -10 4 -5 0 -10
-5 -10 -11z"/>
<path d="M4950 2450 c-9 -6 -10 -10 -3 -10 6 0 15 5 18 10 8 12 4 12 -15 0z"/>
<path d="M1835 2431 c-11 -9 -21 -24 -21 -34 -2 -21 4 -16 21 15 6 13 18 22
28 20 20 -3 23 4 4 11 -7 2 -22 -3 -32 -12z"/>
<path d="M794 2416 c1 -8 5 -18 8 -22 4 -3 5 1 4 10 -1 8 -5 18 -8 22 -4 3 -5
-1 -4 -10z"/>
<path d="M1875 2409 c-4 -6 -5 -12 -2 -15 2 -3 7 2 10 11 7 17 1 20 -8 4z"/>
<path d="M824 2358 c-4 -6 -3 -8 4 -5 5 4 18 4 27 1 13 -5 14 -8 3 -15 -9 -6
-9 -9 -1 -9 21 0 24 19 4 29 -25 14 -28 14 -37 -1z"/>
<path d="M1749 2313 c-8 -9 -9 -14 -2 -10 6 4 13 1 16 -5 3 -7 4 -3 4 10 -1
26 -1 26 -18 5z"/>
<path d="M866 2304 c-5 -14 -4 -15 9 -4 17 14 19 20 6 20 -5 0 -12 -7 -15 -16z"/>
<path d="M1717 2245 c3 -8 9 -12 14 -9 12 7 11 11 -5 17 -10 4 -13 1 -9 -8z"/>
<path d="M940 2190 c-6 -11 -9 -20 -8 -20 2 0 11 9 21 20 9 11 13 20 7 20 -5
0 -14 -9 -20 -20z"/>
<path d="M1675 2160 c-3 -5 -1 -10 4 -10 6 0 11 5 11 10 0 6 -2 10 -4 10 -3 0
-8 -4 -11 -10z"/>
<path d="M4950 2130 c-9 -6 -10 -10 -3 -10 6 0 15 5 18 10 8 12 4 12 -15 0z"/>
<path d="M1615 2100 c-3 -5 -1 -10 4 -10 6 0 11 5 11 10 0 6 -2 10 -4 10 -3 0
-8 -4 -11 -10z"/>
<path d="M1116 1878 c3 -5 10 -6 15 -3 13 9 11 12 -6 12 -8 0 -12 -4 -9 -9z"/>
<path d="M1433 1831 c-1 -11 6 -26 15 -33 15 -11 15 -11 4 3 -7 9 -10 24 -6
33 3 9 2 16 -3 16 -5 0 -9 -9 -10 -19z"/>
<path d="M4950 1810 c-9 -6 -10 -10 -3 -10 6 0 15 5 18 10 8 12 4 12 -15 0z"/>
<path d="M1860 1760 c-9 -6 -10 -10 -3 -10 6 0 15 5 18 10 8 12 4 12 -15 0z"/>
<path d="M1870 1720 c0 -5 5 -10 11 -10 5 0 7 5 4 10 -3 6 -8 10 -11 10 -2 0
-4 -4 -4 -10z"/>
<path d="M1910 1359 c0 -5 5 -7 10 -4 6 3 10 8 10 11 0 2 -4 4 -10 4 -5 0 -10
-5 -10 -11z"/>
<path d="M1930 1310 c0 -5 5 -10 11 -10 5 0 7 5 4 10 -3 6 -8 10 -11 10 -2 0
-4 -4 -4 -10z"/>
<path d="M1949 1277 c6 -8 9 -16 6 -19 -3 -2 1 -5 9 -5 11 0 12 4 3 19 -7 10
-16 18 -21 18 -4 0 -3 -6 3 -13z"/>
<path d="M4887 1253 c3 -7 6 -13 8 -13 2 0 5 6 8 13 3 8 -1 14 -8 14 -7 0 -11
-6 -8 -14z"/>
<path d="M4866 1232 c-3 -5 1 -9 9 -9 8 0 12 4 9 9 -3 4 -7 8 -9 8 -2 0 -6 -4
-9 -8z"/>
<path d="M4776 1062 c-3 -4 4 -9 15 -9 23 -2 25 3 4 10 -8 4 -16 3 -19 -1z"/>
<path d="M4613 925 c0 -8 4 -12 9 -9 5 3 6 10 3 15 -9 13 -12 11 -12 -6z"/>
<path d="M3238 853 c6 -2 9 -10 6 -15 -4 -7 -2 -8 5 -4 13 9 5 26 -12 25 -9 0
-8 -2 1 -6z"/>
<path d="M3318 853 c6 -2 9 -10 6 -15 -4 -7 -2 -8 5 -4 13 9 5 26 -12 25 -9 0
-8 -2 1 -6z"/>
<path d="M3374 849 c-4 -7 -3 -9 4 -5 5 3 13 0 15 -6 4 -9 6 -10 6 -1 1 17
-16 25 -25 12z"/>
<path d="M3855 835 c0 -13 3 -21 8 -18 4 2 7 10 7 18 0 8 -3 16 -7 18 -5 3 -8
-5 -8 -18z"/>
<path d="M3903 844 c0 -9 6 -13 14 -9 10 3 13 -1 8 -14 -7 -22 10 -37 21 -20
5 8 3 9 -6 4 -9 -5 -10 -2 -6 13 5 15 1 24 -12 31 -14 8 -19 7 -19 -5z"/>
<path d="M3655 819 c-3 -4 2 -6 10 -5 21 3 28 13 10 13 -9 0 -18 -4 -20 -8z"/>
<path d="M2901 796 c-8 -10 -9 -16 -1 -21 6 -4 9 -1 8 7 -2 7 3 12 10 10 8 -1
11 2 7 8 -8 13 -10 13 -24 -4z"/>
<path d="M3984 758 c1 -7 5 -19 9 -25 5 -8 3 -13 -4 -13 -7 0 -10 -3 -6 -6 12
-12 28 7 18 20 -6 7 -8 15 -5 18 3 3 1 9 -4 12 -6 3 -9 0 -8 -6z"/>
<path d="M2895 751 c-3 -5 -2 -12 3 -15 5 -3 9 1 9 9 0 17 -3 19 -12 6z"/>
<path d="M3946 738 c3 -5 10 -6 15 -3 13 9 11 12 -6 12 -8 0 -12 -4 -9 -9z"/>
<path d="M2180 710 c-9 -6 -10 -10 -3 -10 6 0 15 5 18 10 8 12 4 12 -15 0z"/>
<path d="M4010 680 c0 -5 5 -10 11 -10 5 0 7 5 4 10 -3 6 -8 10 -11 10 -2 0
-4 -4 -4 -10z"/>
<path d="M2795 609 c-4 -6 -5 -12 -2 -15 2 -3 7 2 10 11 7 17 1 20 -8 4z"/>
<path d="M4090 580 c0 -5 5 -10 11 -10 5 0 7 5 4 10 -3 6 -8 10 -11 10 -2 0
-4 -4 -4 -10z"/>
<path d="M2675 440 c-16 -7 -17 -9 -3 -9 9 -1 20 4 23 9 7 11 7 11 -20 0z"/>
<path d="M4155 441 c-3 -5 -2 -12 3 -15 5 -3 9 1 9 9 0 17 -3 19 -12 6z"/>
<path d="M4210 346 c0 -2 7 -7 16 -10 8 -3 12 -2 9 4 -6 10 -25 14 -25 6z"/>
<path d="M2590 320 c0 -5 5 -10 10 -10 6 0 10 5 10 10 0 6 -4 10 -10 10 -5 0
-10 -4 -10 -10z"/>
<path d="M1965 280 c3 -5 11 -10 16 -10 6 0 7 5 4 10 -3 6 -11 10 -16 10 -6 0
-7 -4 -4 -10z"/>
<path d="M2595 281 c-3 -5 -2 -12 3 -15 5 -3 9 1 9 9 0 17 -3 19 -12 6z"/>
<path d="M2545 260 c-3 -6 1 -7 9 -4 18 7 21 14 7 14 -6 0 -13 -4 -16 -10z"/>
<path d="M2013 235 c0 -8 4 -15 9 -15 4 0 8 4 8 9 0 6 -4 12 -8 15 -5 3 -9 -1
-9 -9z"/>
<path d="M2560 240 c-9 -6 -10 -10 -3 -10 6 0 15 5 18 10 8 12 4 12 -15 0z"/>
<path d="M4361 231 c-8 -5 -9 -11 -3 -15 5 -3 12 1 16 9 6 17 6 18 -13 6z"/>
<path d="M4475 221 c-3 -5 -2 -12 3 -15 5 -3 9 1 9 9 0 17 -3 19 -12 6z"/>
<path d="M4542 222 c-9 -7 -7 -13 9 -27 15 -15 20 -16 17 -5 -2 10 4 14 17 13
20 -1 20 -1 1 13 -23 16 -26 17 -44 6z m28 -6 c0 -3 -4 -8 -10 -11 -5 -3 -10
-1 -10 4 0 6 5 11 10 11 6 0 10 -2 10 -4z"/>
<path d="M4703 222 c-7 -4 -9 -13 -4 -21 6 -9 10 -7 14 8 3 12 4 21 4 21 -1 0
-7 -4 -14 -8z"/>
<path d="M2120 211 c0 -6 4 -13 10 -16 6 -3 7 1 4 9 -7 18 -14 21 -14 7z"/>
<path d="M2350 206 c0 -8 4 -17 9 -20 5 -4 7 3 4 14 -6 23 -13 26 -13 6z"/>
<path d="M2390 208 c0 -4 4 -8 9 -8 6 0 12 4 15 8 3 5 -1 9 -9 9 -8 0 -15 -4
-15 -9z"/>
<path d="M4444 205 c8 -8 18 -15 22 -15 3 0 1 7 -6 15 -7 8 -17 15 -22 15 -5
0 -3 -7 6 -15z"/>
<path d="M4747 213 c-3 -5 5 -8 18 -8 13 0 21 3 18 8 -2 4 -10 7 -18 7 -8 0
-16 -3 -18 -7z"/>
<path d="M2308 183 c7 -3 16 -2 19 1 4 3 -2 6 -13 5 -11 0 -14 -3 -6 -6z"/>
<path d="M4756 178 c3 -5 10 -6 15 -3 13 9 11 12 -6 12 -8 0 -12 -4 -9 -9z"/>
</g>
</svg>
